<!DOCTYPE svg PUBLIC "-//W3C//DTD SVG 1.1//EN" "http://www.w3.org/Graphics/SVG/1.1/DTD/svg11.dtd">
<!-- Uploaded to: SVG Repo, www.svgrepo.com, Transformed by: SVG Repo Mixer Tools -->
<svg fill="#3b82f8" height="800px" width="800px" version="1.1" id="Capa_1" xmlns="http://www.w3.org/2000/svg" xmlns:xlink="http://www.w3.org/1999/xlink" viewBox="0 0 198 198" xml:space="preserve" stroke="#3b82f8">
<g id="SVGRepo_bgCarrier" stroke-width="0"/>
<g id="SVGRepo_tracerCarrier" stroke-linecap="round" stroke-linejoin="round"/>
<g id="SVGRepo_iconCarrier"> <path d="M192.427,44.588H151.75v-4.325c0-11.813-9.611-21.425-21.425-21.425H67.675c-11.814,0-21.425,9.611-21.425,21.425v4.325 H5.573C2.5,44.588,0,47.088,0,50.161v18.52l40.886,34.552c0.85-1.546,2.475-2.607,4.364-2.607h13.5c2.761,0,5,2.239,5,5v3.213h70.5 v-3.213c0-2.761,2.239-5,5-5h13.5c1.889,0,3.514,1.06,4.364,2.607L198,68.681v-18.52C198,47.088,195.5,44.588,192.427,44.588z M56.25,40.263c0-6.3,5.125-11.425,11.425-11.425h62.649c6.3,0,11.425,5.125,11.425,11.425v4.325h-85.5V40.263z M157.75,115.788 l35.017-29.592v78.626c0,7.907-6.433,14.339-14.339,14.339H19.573c-7.907,0-14.339-6.433-14.339-14.339V86.196l35.017,29.592v11.213 c0,2.761,2.239,5,5,5h13.5c2.761,0,5-2.239,5-5v-8.162h70.5v8.162c0,2.761,2.239,5,5,5h13.5c2.761,0,5-2.239,5-5V115.788z"/> </g>
</svg>